# xmcd
#
# Track frame offsets: 
#        182
#        15155
#        28792
#        45680
#        57060
#        62470
#        73700
#        84170
#        95790
#        112317
#        123142
#        139807
#        149342
#        157152
#
# Disc length: 2304 seconds
#
# Revision: 6
# Processed by: cddbd v1.5.2PL0 Copyright (c) Steve Scherf et al.
# Submitted via: ExactAudioCopy v0.95b4
#
DISCID=bf08fe0e
DTITLE=Various Artist - Grammy's Greatest Country Moments (Volume I)
DYEAR=1994
DGENRE=Country
TTITLE0=Hank Williams, Jr. and B.B. King - All My Rowdy Friends Are Comi
TTITLE0=ng Over Tonight
TTITLE1=Vince Gill - Pocket Full Of Gold
TTITLE2=Clint Black and Wyonna Judd - A Bad Goodbye
TTITLE3=Randy Travis - Diggin' Up Bones
TTITLE4=Marty Robbins - My Woman My Woman, My Wife
TTITLE5=Crystal Gayle - Don't It Make My Brown Eyes Blue
TTITLE6=Oak Ridge Boys - Elvira
TTITLE7=Tammy Wynette - Good Lovin' Makes It Right
TTITLE8=Willie Nelson - Always On My Mind
TTITLE9=Kenny Rogers and Dottie West - Anyone Who Isn't Me Tonight
TTITLE10=Rodney Crowell - After All This Time
TTITLE11=Johnny Cash - Folsom Prison Blues
TTITLE12=Buck Owens and Dwight Yoakam - Streets Of Bakerfield
TTITLE13=Charlie Daniels Band - Devil Went Down To Georgia
EXTD=
EXTT0=
EXTT1=
EXTT2=
EXTT3=
EXTT4=
EXTT5=
EXTT6=
EXTT7=
EXTT8=
EXTT9=
EXTT10=
EXTT11=
EXTT12=
EXTT13=
PLAYORDER=
